<svg class="icon" style="fill: currentColor; height: 1em; overflow: hidden; vertical-align: middle; width: 1em" viewBox="0 0 1024 1024" version="1.1" xmlns="http://www.w3.org/2000/svg"><path d="M 896 704 c 0 16.2 -9 30.3 -22.6 37.5 l -337.1 189.4 c -6.8 5.1 -15.4 7.7 -24.3 7.7 c -9 0 -17.5 -2.6 -24.3 -7.7 l -337.1 -189.4 A 42.3 42.3 0 0 1 128 704 v -384 c 0 -16.2 9 -30.3 22.6 -37.5 l 337.1 -189.4 c 6.8 -5.1 15.4 -7.7 24.3 -7.7 c 9 0 17.5 2.6 24.3 7.7 l 337.1 189.4 c 13.7 7.3 22.6 21.3 22.6 37.5 v 384 M 213.3 384 v 256 h 53.3 v -85.3 H 298.7 a 85.3 85.3 0 0 0 85.3 -85.3 a 85.3 85.3 0 0 0 -85.3 -85.3 H 213.3 m 53.3 128 v -85.3 h 21.3 a 42.7 42.7 0 0 1 42.7 42.7 a 42.7 42.7 0 0 1 -42.7 42.7 h -21.3 m 149.3 -128 v 256 H 469.3 v -85.3 h 32 l 28.2 85.3 h 56.3 l -33.7 -102 c 20.9 -15.4 34.6 -40.5 34.6 -68.7 a 85.3 85.3 0 0 0 -85.3 -85.3 h -85.3 M 469.3 512 v -85.3 h 21.3 a 42.7 42.7 0 0 1 42.7 42.7 a 42.7 42.7 0 0 1 -42.7 42.7 H 469.3 m 256 -128 c -58.9 0 -106.7 57.2 -106.7 128 s 47.8 128 106.7 128 s 106.7 -57.2 106.7 -128 s -47.8 -128 -106.7 -128 m 0 53.3 c 32.4 0 58.9 33.3 58.9" fill="#0078c9" /></svg>