<svg width="162" height="55" fill="none" xmlns="http://www.w3.org/2000/svg"><g clip-path="url(#clip0)" fill-rule="evenodd" clip-rule="evenodd"><path d="M12.381 10.271c0-.431.09-.839.226-1.226-1.958 1.134-6.025 4.017-6.025 8.408 0 7.21 5.723 7.682 5.723 11.879 0 1.772-1.316 2.74-3.053 2.74-2.86 0-6.305-4.243-4.196-9.685 0 0-4.96 2.217-4.96 7.035 0 6.106 5.424 10.509 12.114 10.509 6.691 0 12.115-4.95 12.115-11.056 0-9.335-9.011-13.167-11.178-16.353a3.733 3.733 0 01-.766-2.25z" fill="url(#paint0_linear)"/><path d="M.7 32.87c2.207 4.789 8.91 6.223 12.19 3.123 2.69-2.545 1.019-6.314-1.567-9.406.588.783.989 1.633.989 2.744 0 1.778-1.319 2.75-3.06 2.75-2.864 0-6.317-4.258-4.204-9.72 0 0-3.878 1.74-4.782 5.48-.044.586-.103 1.316-.173 2.127A9.682 9.682 0 00.7 32.87z" fill="url(#paint1_linear)"/><path d="M37.711 35C32.713 35 29 31.174 29 26.337v-.048c0-4.789 3.64-8.712 8.857-8.712 2.547 0 4.27.674 5.678 1.71.388.288.728.817.728 1.467 0 1.01-.825 1.805-1.844 1.805-.51 0-.85-.193-1.117-.361-1.043-.77-2.135-1.203-3.47-1.203-2.863 0-4.925 2.358-4.925 5.246v.048c0 2.887 2.014 5.294 4.925 5.294 1.578 0 2.621-.481 3.689-1.324.29-.24.68-.409 1.116-.409.946 0 1.747.77 1.747 1.709 0 .577-.291 1.035-.631 1.323C42.224 34.206 40.429 35 37.711 35zm.589-6.7a2 2 0 110-4 2 2 0 010 4zm7.317 4.727c0 1.01.825 1.829 1.844 1.829 1.02 0 1.844-.819 1.844-1.83v-5.51c0-1.733.898-2.623 2.305-2.623 1.408 0 2.233.89 2.233 2.623v5.51c0 1.011.825 1.83 1.844 1.83a1.836 1.836 0 001.844-1.83v-6.665c0-2.96-1.626-4.789-4.416-4.789-1.869 0-2.96.987-3.81 2.07v-4.813c0-1.01-.825-1.829-1.844-1.829a1.836 1.836 0 00-1.844 1.829v14.198zM65.461 35c-4.028 0-7.012-2.96-7.012-6.666v-.048c0-3.706 3.009-6.714 7.06-6.714 4.029 0 7.013 2.96 7.013 6.666v.048c0 3.706-3.009 6.714-7.06 6.714zm.049-3.152c2.11 0 3.373-1.613 3.373-3.514v-.048c0-1.901-1.383-3.561-3.422-3.561-2.11 0-3.373 1.612-3.373 3.513v.048c0 1.901 1.383 3.562 3.422 3.562zm8.197 1.179c0 1.01.825 1.829 1.844 1.829 1.02 0 1.844-.819 1.844-1.83V18.83c0-1.01-.825-1.829-1.844-1.829-1.02 0-1.844.818-1.844 1.829v14.198zm5.673 0c0 1.01.825 1.829 1.845 1.829a1.836 1.836 0 001.844-1.83V18.83c0-1.01-.825-1.829-1.844-1.829-1.02 0-1.845.818-1.845 1.829v14.198zM91.266 35c-4.028 0-7.013-2.96-7.013-6.666v-.048c0-3.706 3.01-6.714 7.061-6.714 4.028 0 7.013 2.96 7.013 6.666v.048c0 3.706-3.009 6.714-7.061 6.714zm.048-3.152c2.111 0 3.373-1.613 3.373-3.514v-.048c0-1.901-1.383-3.561-3.421-3.561-2.111 0-3.373 1.612-3.373 3.513v.048c0 1.901 1.383 3.562 3.421 3.562zm8.464 2.045c0 .53.413.939.947.939.533 0 .922-.41.922-.939v-6.28c0-2.287 1.504-3.923 3.494-3.923 1.99 0 3.227 1.371 3.227 3.706v6.497c0 .53.413.939.922.939.534 0 .946-.41.946-.939V27.54c0-2.454 1.553-3.85 3.446-3.85 2.038 0 3.252 1.347 3.252 3.754v6.449c0 .53.412.939.946.939.509 0 .922-.41.922-.939v-6.882c0-3.08-1.771-5.006-4.659-5.006-2.184 0-3.518 1.107-4.416 2.479-.68-1.396-1.99-2.479-4.028-2.479-2.111 0-3.227 1.131-4.052 2.359v-1.276a.929.929 0 00-.947-.938.939.939 0 00-.922.938v10.805zm22.538-6.088h8.08c-.194-2.262-1.504-4.235-4.004-4.235-2.183 0-3.833 1.804-4.076 4.235zm9.099 5.318c-1.189 1.131-2.596 1.877-4.731 1.877-3.446 0-6.261-2.623-6.261-6.473v-.048c0-3.586 2.548-6.474 6.018-6.474 3.712 0 5.824 3.008 5.824 6.305a.867.867 0 01-.874.867h-9.075c.267 2.695 2.184 4.21 4.416 4.21 1.553 0 2.694-.6 3.616-1.443.145-.12.315-.217.533-.217.461 0 .825.361.825.794a.796.796 0 01-.291.602zm6.693 1.805c.728 0 1.31-.12 1.844-.337.316-.12.534-.385.534-.722a.805.805 0 00-.801-.794c-.145 0-.485.168-1.14.168-1.262 0-2.111-.553-2.111-2.07v-7.267h3.251c.461 0 .849-.36.849-.818 0-.433-.388-.818-.849-.818h-3.251v-2.936a.96.96 0 00-.947-.938.923.923 0 00-.922.938v2.936h-1.019a.83.83 0 00-.825.818c0 .433.388.818.825.818h1.019v7.508c0 2.527 1.529 3.514 3.543 3.514zm3.951-1.035V23.088c0-.505.412-.938.922-.938.534 0 .946.409.946.938v2.334c.922-2.07 2.742-3.32 4.319-3.32.558 0 .922.409.922.938 0 .506-.339.866-.825.939-2.426.288-4.416 2.093-4.416 5.679v4.235a.923.923 0 01-.922.939.928.928 0 01-.946-.939zM155.424 35c-3.761 0-6.503-2.936-6.503-6.45v-.047c0-3.514 2.766-6.498 6.552-6.498 3.761 0 6.527 2.936 6.527 6.45v.048c0 3.513-2.79 6.497-6.576 6.497zm.049-1.66c2.717 0 4.61-2.166 4.61-4.79v-.047c0-2.671-2.014-4.861-4.659-4.861-2.717 0-4.586 2.19-4.586 4.813v.048c0 2.67 1.99 4.837 4.635 4.837z" fill="#fff"/></g><defs><linearGradient id="paint0_linear" x1="8.512" y1="13.357" x2="28.524" y2="44.636" gradientUnits="userSpaceOnUse"><stop stop-color="#FFA02F"/><stop offset="1" stop-color="#E00034"/></linearGradient><linearGradient id="paint1_linear" x1="9.918" y1="36.607" x2="2.003" y2="15.977" gradientUnits="userSpaceOnUse"><stop stop-color="#FFA02F"/><stop offset="1" stop-color="#E00034"/></linearGradient><clipPath id="clip0"><path fill="#fff" d="M0 0h162v55H0z"/></clipPath></defs></svg>