<?xml version="1.0" encoding="iso-8859-1"?>
<!-- Generator: Adobe Illustrator 16.0.0, SVG Export Plug-In . SVG Version: 6.00 Build 0)  -->
<!DOCTYPE svg PUBLIC "-//W3C//DTD SVG 1.1//EN" "http://www.w3.org/Graphics/SVG/1.1/DTD/svg11.dtd">
<svg fill="#2e87ca" version="1.1" id="Capa_1" xmlns="http://www.w3.org/2000/svg" xmlns:xlink="http://www.w3.org/1999/xlink" x="0px" y="0px"
	 width="476.4px" height="476.4px" viewBox="0 0 476.438 476.438" style="enable-background: new 0 0 476.438 476.438"
	 xml:space="preserve">
<g>
	<g fill="#2e87ca" transform="matrix(1.3,0,0,2.3,-64.9,-245.2)">
		<path fill="#2e87ca" d="M 110.1 199.7 H 94.3 c -0.5 0 -0.9 0.2 -1.1 0.6 L 87 214.4 h -4.9 c -2 0 -3 -0.9 -3 -2.6 c 0 -1.2 0.6 -3 1.7 -5.5 l 2.1 -4.8 c 1 -2.3 2 -3.9 2.9 -4.8 c 1.3 -1.4 3 -2.1 5.1 -2.1 h 18.4 c 0.5 0 0.9 -0.2 1.1 -0.5 l 1.8 -4.1 c 0 -0.1 0 -0.1 0 -0.2 c 0 -0.3 -0.2 -0.4 -0.6 -0.4 H 83.4 c -4.4 0 -8.5 1.5 -12.4 4.6 c -3.5 2.8 -6.2 6.3 -8.2 10.5 C 61.8 207 61.2 209.3 61.2 211.5 c 0 2.6 0.8 4.6 2.5 6.1 c 1.6 1.3 3.7 2 6.3 2 h 31.3 c 0.5 0 0.9 -0.2 1.1 -0.6 c 5.6 -12.6 8.4 -18.9 8.4 -18.9 C 110.7 199.8 110.5 199.7 110.1 199.7 z"/>
		<path d="M 152.1 214.4 H 132.1 c -2 0 -3 -0.9 -3 -2.6 c 0 -1.2 0.6 -3 1.7 -5.5 l 2.1 -4.8 c 1 -2.3 2 -3.9 2.9 -4.8 c 1.3 -1.4 3 -2.1 5.1 -2.1 h 20 c 0.6 0 0.9 -0.2 1.1 -0.5 l 1.8 -4.1 c 0 -0.1 0 -0.1 0 -0.2 c 0 -0.3 -0.2 -0.4 -0.6 -0.4 H 133.4 c -4.4 0 -8.5 1.5 -12.4 4.6 c -3.5 2.8 -6.3 6.3 -8.2 10.5 c -1.1 2.5 -1.7 4.8 -1.7 7 c 0 2.6 0.8 4.6 2.5 6.1 c 1.6 1.3 3.7 2 6.3 2 h 29.8 c 0.6 0 0.9 -0.2 1.1 -0.6 l 1.8 -4 c 0 -0.1 0 -0.1 0 -0.2 C 152.7 214.5 152.5 214.4 152.1 214.4 z"/>
		<path d="M 137.1 200.6 c -0.5 0 -0.8 0.2 -1 0.6 c -1.2 2.8 -1.8 4.2 -1.8 4.2 c 0 0.3 0.2 0.4 0.5 0.4 h 21.2 c 0.5 0 0.9 -0.2 1 -0.6 c 1.3 -2.8 1.9 -4.2 1.9 -4.2 c 0 -0.3 -0.2 -0.4 -0.6 -0.4 H 137.1 z"/>
		<path d="M 222.1 189.8 c 0 -0.3 -0.2 -0.4 -0.6 -0.4 h -6 c -0.6 0 -0.9 0.2 -1.1 0.6 l -5.5 12.4 l -30.7 -12.4 c -0.9 -0.4 -1.7 -0.6 -2.2 -0.6 h -6.8 c -0.5 0 -0.9 0.2 -1.1 0.6 l -12.9 29 c 0 0.1 0 0.1 0 0.2 c 0 0.3 0.2 0.4 0.6 0.4 h 6.1 c 0.5 0 0.9 -0.2 1.1 -0.6 l 5.4 -12.2 l 30.1 12.1 c 1.1 0.4 2 0.7 2.6 0.7 h 7 c 0.6 0 0.9 -0.2 1.1 -0.6 l 12.9 -29 C 222.1 189.9 222.1 189.9 222.1 189.8 z"/>
		<path d="M 271.7 194.5 c 0 -1.8 -0.8 -3.1 -2.2 -4 c -1.3 -0.7 -2.8 -1.1 -4.7 -1.1 h -37.8 c -0.6 0 -0.9 0.2 -1.1 0.6 c -8.6 19.4 -13 29.1 -13 29.2 c 0 0.3 0.2 0.4 0.6 0.4 h 37.8 c 2.8 0 5.5 -0.9 8.2 -2.6 c 2.7 -1.8 4.6 -3.9 5.7 -6.5 c 0.5 -1.1 0.8 -2.2 0.8 -3.3 c 0 -1.6 -0.6 -2.9 -1.7 -3.9 c 2 -0.9 3.6 -2.1 5 -3.5 C 270.8 198.2 271.7 196.4 271.7 194.5 z M 253.3 197.6 c -0.4 0.9 -1.2 1.7 -2.4 2.2 c -1.1 0.5 -2.2 0.7 -3.3 0.7 h -5.7 c -0.6 0 -0.9 0.2 -1.1 0.6 l -1.8 4.1 c 0 0 0 0.1 0 0.2 c 0 0.3 0.2 0.4 0.6 0.4 h 5.7 c 1.8 0 2.6 0.8 2.6 2.4 c 0 1.6 -0.7 3 -2.1 4.3 c -1.4 1.3 -2.8 2 -4.4 2 h -9 l 8.8 -19.8 h 9 c 2.2 0 3.3 0.7 3.3 2 C 253.5 196.9 253.5 197.2 253.3 197.6 z"/>
		<path d="M 317 200.6 h -21.2 c -0.5 0 -0.8 0.2 -1 0.6 c -1.2 2.8 -1.8 4.2 -1.8 4.2 c 0 0.3 0.2 0.4 0.5 0.4 h 21.2 c 0.5 0 0.9 -0.2 1 -0.6 c 1.3 -2.8 1.9 -4.2 1.9 -4.2 C 317.6 200.7 317.4 200.6 317 200.6 z"/>
		<path d="M 321.9 189.4 h -29.8 c -4.4 0 -8.5 1.5 -12.4 4.6 c -3.5 2.8 -6.3 6.3 -8.2 10.5 c -1.1 2.5 -1.7 4.8 -1.7 7 c 0 2.6 0.8 4.6 2.5 6.1 c 1.6 1.3 3.7 2 6.3 2 h 29.8 c 0.6 0 0.9 -0.2 1.1 -0.6 l 1.8 -4 c 0 -0.1 0 -0.1 0 -0.2 c 0 -0.3 -0.2 -0.4 -0.6 -0.4 h -20 c -2 0 -3 -0.9 -3 -2.6 c 0 -1.2 0.6 -3 1.7 -5.5 l 2.1 -4.8 c 1 -2.3 2 -3.9 2.9 -4.8 c 1.3 -1.4 3 -2.1 5.1 -2.1 h 20 c 0.6 0 0.9 -0.2 1.1 -0.5 l 1.8 -4.1 c 0 -0.1 0 -0.1 0 -0.2 C 322.5 189.6 322.3 189.4 321.9 189.4 z"/>
		<path d="M 367.4 194.6 c 0.5 0 0.9 -0.2 1.1 -0.5 c 1.2 -2.8 1.8 -4.2 1.8 -4.3 c 0 -0.3 -0.2 -0.4 -0.6 -0.4 h -42.4 c -0.5 0 -0.9 0.2 -1.1 0.6 c -1.2 2.8 -1.8 4.2 -1.8 4.2 c 0 0.3 0.2 0.4 0.6 0.4 h 12.3 c -7.3 16.3 -10.9 24.5 -10.9 24.6 c 0 0.3 0.2 0.4 0.5 0.4 h 15.9 c 0.5 0 0.8 -0.2 1 -0.6 l 10.9 -24.4 L 367.4 194.6 L 367.4 194.6 z"/>
		<path d="M 398 189.4 h -4.7 c -0.3 0 -0.5 0.1 -0.7 0.2 l -44.4 29 c -0.3 0.2 -0.5 0.4 -0.5 0.6 c 0 0.2 0.2 0.4 0.7 0.4 h 33.8 c 0.5 0 0.9 -0.2 1 -0.6 c 1.2 -2.8 1.9 -4.2 1.9 -4.2 c 0 -0.3 -0.2 -0.4 -0.6 -0.4 h -23.3 l 21.7 -14.4 l 12.5 19.4 c 0.1 0.1 0.3 0.2 0.5 0.2 h 19.7 c 0.7 0 1.1 -0.2 1.1 -0.7 c 0 -0.1 -6 -9.8 -18.1 -29.3 C 398.4 189.5 398.2 189.4 398 189.4 z"/>
	</g>
</g>
</svg>
