<svg xmlns="http://www.w3.org/2000/svg" viewBox="0 0 529.7 150" width="2500" height="708"><title>logo_Hub</title><path transform="matrix(0,1,-1,0,308.2,-31)" fill="#70008a" d="M 31.3 215.7 h 145.1 v 30.1 H 31.3 z"/><g>
        <path  d="M 108.8 2.8 h 31.2 v 56.1 h 57.6 V 2.8 h 31.2 V 144.8 H 197.6 V 87.8 h -57.6 v 57 h -31.2 V 2.8 z M 237.3 106.4 V 36.1 h 30.8 v 60.6 c 0 14.6 6.9 22.1 18.6 22.1 s 19.3 -7.5 19.3 -22.1 V 36.1 h 30.8 V 144.8 h -30.8 v -15.4 c -7.1 9.1 -16.2 17.4 -31.8 17.4 c -23.3 0 -36.9 -15.4 -36.9 -40.3 z M 378 130.5 V 144.8 h -30.8 V -3.2 h 30.8 v 54.9 c 7.5 -10.1 17.8 -17.6 33.9 -17.6 c 25.3 0 49.5 19.9 49.5 56.1 v 0.4 c 0 36.3 -23.7 56.2 -49.5 56.2 c -16.4 0 -26.6 -7.5 -33.9 -16.2 z m 52.5 -39.9 v -0.4 c 0 -18 -12.2 -30 -26.6 -30 s -26.4 12 -26.4 30 v 0.4 c 0 18 12 30 26.4 30 s 26.6 -11.7 26.6 -30 z"/>
    </g>
</svg>