<svg xmlns="http://www.w3.org/2000/svg" width="2500" height="476" viewBox="0 0 211.59 40.294"><g fill="#52851f"><path d="M 12 3.5 c 5.7 -3.1 13.2 -3.9 19 -0.7 c 4 2.2 5.7 6.9 5.7 11.3 c 0.1 8.3 0 16.6 0 24.8 l -3.7 -0.1 c -0.1 -8.6 0.2 -17.3 -0.1 -25.9 c 0 -5 -4.4 -8.9 -9.3 -9 c -7.1 -0.8 -13.1 3.7 -18.3 7.8 c -0.9 -4.5 3.4 -6.5 6.5 -8.2 z M 50.5 5.7 c 7.7 -7.7 22.1 -7.2 28.7 1.6 c 2.9 3.5 3.5 8.2 3.7 12.6 c -10.9 0 -21.8 0 -32.7 0 l 0.3 -2.9 c 9.6 0 19.3 0 28.9 0 c -0.9 -4.5 -3 -9.2 -7.2 -11.5 c -7.2 -4.3 -17.4 -1.9 -21.7 5.3 c -4.8 7.8 -2.3 19.9 6.3 24 c 7.8 3.6 17.2 1.1 23.4 -4.3 c 0.4 0.6 1.2 1.8 1.6 2.4 c -7.2 7.1 -19.3 8.8 -28.1 3.9 c -10.8 -6 -12.4 -22.9 -3.2 -31.1 z M 181.4 3 c 7.3 -4.1 17.1 -4 24.3 0.2 c 3.5 1.9 4.9 5.8 5.8 9.4 c -0.9 0 -2.7 0.1 -3.6 0.2 c -1 -2.7 -1.9 -5.8 -4.6 -7.2 c -6.1 -3.5 -14.3 -3.4 -20.3 0.3 c -3.5 2.1 -3.7 7.9 0.2 9.7 c 7.7 3.9 17.3 1.8 24.6 6.8 c 4.2 2.8 4.6 9.5 1.1 13.1 c -3.1 3.3 -7.9 4.1 -12.2 4.8 h -5.8 c -7.7 -0.4 -15.5 -5.1 -16.4 -13.3 l 3.5 -0.1 c 1.2 3.8 3.4 7.6 7.4 8.9 c 6.3 2.2 14 2.3 19.8 -1.4 c 3.4 -2.3 3.2 -8.1 -0.6 -10 c -7.8 -4.3 -17.9 -1.7 -25.1 -7.2 c -4.6 -3.7 -3.1 -11.5 1.9 -14.1 z M 0 1.5 h 3.6 v 37.3 c -0.9 0 -2.7 0 -3.6 0 C 0 26.4 0 13.9 0 1.5 z M 131.6 1.5 h 3.7 c 0.1 8.8 -0.2 17.5 0.1 26.3 c 0.1 4.5 3.9 8.3 8.3 8.8 c 7.2 1.3 13.8 -3.1 19 -7.6 c 0 1 0 3 0 4 c -6.2 5.1 -14.7 8.7 -22.7 6 c -4.9 -1.3 -8.1 -6.2 -8.3 -11.2 c -0.3 -8.8 0 -17.5 -0.1 -26.3 z M 164.8 1.5 h 3.7 v 37.4 c -0.9 0 -2.8 0 -3.7 0 c 0 -12.4 0 -24.9 0 -37.3 z"/></g><path d="M 86.7 3.2 h 4.9 c 4.3 4.5 8.7 8.9 12.9 13.4 c 1.2 1.1 1.7 2.8 2.3 4.3 c -1.8 0.1 -3.7 -0.1 -4.8 -1.7 c -5.1 -5.3 -10.2 -10.7 -15.3 -15.9 z" opacity=".91" fill="#52851f"/><path d="M 118.9 3.2 c 1.7 0 3.3 0 5 0 c -5.7 5.8 -11.1 11.8 -17 17.4 l -3.4 0.1 c 3.6 -7 10.4 -11.5 15.4 -17.5 z" opacity=".89" fill="#52851f"/><path d="M 100.8 23.2 c 1.4 -1.6 3.1 -2.7 5.3 -3 c 0.5 2.3 -1.2 3.9 -2.6 5.4 c -4.2 4.3 -8.3 8.6 -12.5 12.9 C 89.4 38.4 87.8 38.4 86.2 38.4 c 4.7 -5.2 9.7 -10.1 14.5 -15.2 z" opacity=".9" fill="#52851f"/><path d="M 105.7 20.6 c 2.1 0.4 3.9 1.4 5.3 3 c 4.8 5.1 9.8 10.1 14.6 15.3 c -1.6 0 -3.2 0.1 -4.8 0.1 c -4 -4 -7.9 -8.1 -11.8 -12.2 c -1.6 -1.7 -3.7 -3.5 -3.2 -6.2 z" opacity=".91" fill="#52851f"/></svg>