<?xml version="1.0" encoding="utf-8"?>
<!-- Generator: Adobe Illustrator 26.5.0, SVG Export Plug-In . SVG Version: 6.00 Build 0)  -->
<svg version="1.1" id="Layer_1" xmlns="http://www.w3.org/2000/svg" xmlns:xlink="http://www.w3.org/1999/xlink" x="0px" y="0px"
	 viewBox="0 0 512 512" style="enable-background:new 0 0 512 512;" xml:space="preserve">
<style type="text/css">
	.st0{fill:#094AB1;}
</style>
<g id="text4313">
</g>
<g id="XMLID_26_">
	<path id="XMLID_28_" class="st0" d="M47.09,298.34c-8.72-2.21-13.7-9.13-13.7-19.51c0-3.32,0.28-4.84,1.11-7.06
		c2.08-5.26,7.33-9.13,14.39-10.65c3.46-0.69,4.57-1.52,4.57-3.32c0-0.55,0.42-2.21,0.97-3.74c2.35-6.78,6.64-12.31,11.21-14.66
		c4.84-2.35,7.19-2.91,13-2.91c8.3,0,12.31,1.8,18.12,7.89l3.18,3.32l2.91-0.97c13.7-4.7,27.39,3.32,28.5,16.88l0.28,3.74l2.77,0.97
		c7.75,2.77,11.34,8.58,10.65,17.15c-0.42,5.53-3.04,10.1-7.19,12.31l-1.94,1.11l-43.16,0C59.54,299.04,48.88,298.9,47.09,298.34
		L47.09,298.34z"/>
	<path id="XMLID_32_" class="st0" d="M14.71,292.4c-5.12-1.25-10.51-5.81-13.14-10.93c-1.38-2.91-1.52-3.32-1.52-8.58
		c0-4.98,0.14-5.67,1.25-8.16c2.49-5.12,7.06-8.85,12.87-10.38c1.25-0.28,2.35-0.83,2.63-1.11c0.14-0.28,0.42-1.94,0.42-3.6
		c0.42-10.38,7.19-19.51,16.74-22.41c5.12-1.52,11.62-1.25,17.15,0.97c1.8,0.69,1.52,0.83,5.26-4.01c2.21-2.91,6.64-6.5,10.38-8.3
		c4.01-1.94,8.02-2.91,13-2.91c13.7,0,25.59,8.58,29.88,21.72c1.38,4.15,1.38,5.4-0.28,5.4c-0.69,0-2.77,0.42-4.57,0.83l-3.32,0.83
		l-3.04-3.04c-8.44-8.44-22.13-10.24-33.76-4.43c-4.7,2.35-8.44,5.53-11.21,9.96c-2.08,3.04-4.57,8.72-4.57,10.24
		c0,0.97-0.83,1.52-4.29,2.63c-10.79,3.6-17.02,11.76-17.02,22.13c0,3.74,0.97,8.44,2.35,11.07c0.55,0.97,0.83,1.94,0.69,2.08
		C29.93,292.95,16.51,292.81,14.71,292.4z"/>
	<path id="XMLID_35_" class="st0" d="M193.59,289.91c-8.44,0-15.36-2.77-20.34-8.44c-5.12-5.53-7.61-12.87-7.61-21.86
		c0-9.68,2.63-17.29,7.75-23.1c5.26-5.67,12.31-8.58,21.3-8.58c8.3,0,14.94,2.77,19.92,8.3c5.12,5.53,7.61,12.87,7.61,21.86
		c0,9.82-2.63,17.43-7.75,23.24C209.22,287.14,202.17,289.91,193.59,289.91z M194,234.43c-6.23,0-11.34,2.21-15.36,6.78
		c-3.87,4.57-5.95,10.51-5.95,17.85c0,7.33,1.94,13.28,5.81,17.85c3.87,4.57,8.85,6.78,14.94,6.78c6.5,0,11.76-2.08,15.49-6.36
		s5.67-10.24,5.67-17.98c0-7.89-1.8-13.97-5.53-18.4C205.62,236.51,200.51,234.43,194,234.43z"/>
	<path id="XMLID_36_" class="st0" d="M268.43,288.94h-6.92v-24.35c0-9.13-3.32-13.56-9.96-13.56c-3.46,0-6.23,1.25-8.44,3.87
		c-2.21,2.63-3.32,5.81-3.32,9.68v24.35h-6.92v-42.75h6.92v7.06h0.14c3.18-5.4,7.89-8.16,13.97-8.16c4.7,0,8.3,1.52,10.79,4.57
		c2.49,3.04,3.74,7.33,3.74,13.14L268.43,288.94L268.43,288.94z"/>
	<path id="XMLID_39_" class="st0" d="M315.74,269.29h-30.16c0.14,4.7,1.38,8.44,3.87,11.07c2.49,2.63,5.81,3.87,10.1,3.87
		c4.84,0,9.27-1.52,13.28-4.7v6.36c-3.74,2.77-8.72,4.15-14.94,4.15c-6.09,0-10.79-1.94-14.25-5.81c-3.46-3.87-5.12-9.41-5.12-16.32
		c0-6.64,1.94-12.04,5.67-16.32c3.74-4.15,8.44-6.23,14.11-6.23c5.53,0,9.96,1.8,13,5.4c3.04,3.6,4.57,8.58,4.57,15.08v3.46H315.74z
		 M308.83,263.48c0-4.01-0.97-7.06-2.91-9.27c-1.94-2.21-4.43-3.32-7.89-3.32c-3.18,0-5.95,1.11-8.16,3.46
		c-2.21,2.35-3.6,5.4-4.15,9.13L308.83,263.48L308.83,263.48z"/>
	<path id="XMLID_43_" class="st0" d="M327.09,288.94v-59.9h16.6c21.17,0,31.68,9.68,31.68,29.19c0,9.27-2.91,16.74-8.85,22.27
		c-5.81,5.67-13.7,8.44-23.52,8.44H327.09z M334.14,235.4v47.17h8.99c7.89,0,13.97-2.08,18.4-6.36c4.43-4.15,6.5-10.1,6.5-17.85
		c0-15.36-8.16-22.96-24.49-22.96H334.14z"/>
	<path id="XMLID_44_" class="st0" d="M408.43,253.11c-1.25-0.97-2.91-1.38-5.12-1.38c-2.91,0-5.4,1.38-7.33,4.15
		c-1.94,2.77-2.91,6.5-2.91,11.34v21.86h-6.92v-42.75h6.92v8.85h0.14c0.97-3.04,2.49-5.4,4.43-7.06c1.94-1.66,4.29-2.49,6.78-2.49
		c1.8,0,3.18,0.14,4.15,0.55v6.92H408.43z"/>
	<path id="XMLID_50_" class="st0" d="M419.36,235.26c-1.25,0-2.21-0.42-3.18-1.25s-1.25-1.94-1.25-3.18c0-1.25,0.42-2.35,1.25-3.18
		c0.83-0.83,1.94-1.25,3.18-1.25s2.35,0.42,3.18,1.25c0.83,0.83,1.38,1.94,1.38,3.18s-0.42,2.21-1.38,3.18
		C421.71,234.85,420.61,235.26,419.36,235.26z M422.68,288.94h-6.92v-42.75h6.92V288.94z"/>
	<path id="XMLID_51_" class="st0" d="M470.27,246.19l-17.02,42.75h-6.78l-16.19-42.75h7.47l10.79,31.13
		c0.83,2.35,1.25,4.29,1.52,5.95h0.14c0.28-2.08,0.69-4.01,1.38-5.81l11.34-31.27L470.27,246.19L470.27,246.19z"/>
	<path id="XMLID_58_" class="st0" d="M511.91,269.29h-30.16c0.14,4.7,1.38,8.44,3.87,11.07c2.49,2.63,5.81,3.87,10.1,3.87
		c4.84,0,9.27-1.52,13.28-4.7v6.36c-3.74,2.77-8.72,4.15-14.94,4.15c-6.09,0-10.79-1.94-14.25-5.81c-3.46-3.87-5.12-9.41-5.12-16.32
		c0-6.64,1.94-12.04,5.67-16.32c3.74-4.15,8.44-6.23,14.11-6.23c5.53,0,9.96,1.8,13,5.4c3.04,3.6,4.57,8.58,4.57,15.08v3.46H511.91z
		 M504.86,263.48c0-4.01-0.97-7.06-2.91-9.27c-1.94-2.21-4.43-3.32-7.89-3.32c-3.18,0-5.95,1.11-8.16,3.46
		c-2.21,2.35-3.6,5.4-4.15,9.13L504.86,263.48L504.86,263.48z"/>
</g>
</svg>
