<svg id="Arrow_1_" xmlns="http://www.w3.org/2000/svg" viewBox="0 0 500 500.2" width="2499" height="2500"><style>.st0{fill:#91c03d}.st1{fill:#012b56}</style><ellipse class="st0" cx="250" cy="250.1" rx="250" ry="250.1" id="Shape_1_copy_3_25_"/><path class="st1" d="M 260.6 77.9 c -107.6 0 -162 70.7 -162 129.6 c 0 35.7 14.8 67.3 46.3 79.2 c 5.2 2 9.9 0.1 11.3 -5.2 c 1.1 -3.6 5.9 -12.9 7 -16.6 c 1.6 -5.2 1 -7 -3.3 -11.5 c -9 -9.9 -14.8 -20.2 -14.8 -38.2 c 0 -60.1 40.4 -102.8 109 -102.8 c 60.9 0 94.2 35 94.2 80.6 c 0 59.8 -28.9 108.5 -71.8 108.5 c -23.7 0 -41.5 -16 -35.7 -38 c 6.8 -26.3 20 -54.6 20 -73.7 c 0 -17.1 -9.9 -29.2 -30.5 -29.2 c -24.2 0 -43.7 21 -43.7 51.8 c 0 19.6 7 29.3 7 29.3 s -24.5 99.7 -28.9 116.6 c -8.7 33.7 -1.2 74.7 -0.6 78.9 c 0.4 2.4 3.9 3 5.4 1.2 c 2.2 -2.5 31.1 -35.4 41 -67.9 c 2.8 -9.1 16 -57 16 -57 c 7.8 13.7 31 22.6 55.3 22.6 c 72.8 0 122.2 -57.6 122.2 -138.9 c 0.1 -61.7 -56.8 -119.1 -143.3 -119.1 z" id="Pinterest_Icon"/></svg>