<svg xmlns="http://www.w3.org/2000/svg" width="2500" height="567" viewBox="0 0 448.93 101.812"><g fill="#0078c9"><path transform="matrix(1.4,0,0,1.5,-75.4,-18.8)" d="M 99.9 39.9 c 0 7.6 -2.1 13.3 -6.3 17.3 c -4.2 4 -10.2 6 -18.1 6 h -12.8 V 17.5 h 14.2 c 7.3 0 13 2 17 5.9 c 4.1 3.9 6.1 9.4 6.1 16.6 z m -7.9 0.3 c 0 -11 -5.1 -16.4 -15.4 -16.4 h -6.5 v 33.2 h 5.3 c 11 0 16.5 -5.6 16.5 -16.8 z M 120.2 63.9 c -5.4 0 -9.6 -1.6 -12.6 -4.7 c -3 -3.1 -4.6 -7.5 -4.6 -13 c 0 -5.7 1.4 -10.1 4.2 -13.3 c 2.8 -3.2 6.7 -4.9 11.6 -4.9 c 4.6 0 8.2 1.4 10.8 4.2 c 2.7 2.8 4 6.6 4 11.5 v 4 h -23.1 c 0.1 3.4 1 5.9 2.7 7.8 s 4.1 2.7 7.2 2.7 c 2 0 4 -0.2 5.7 -0.6 s 3.7 -1 5.7 -1.9 v 6 C 130.2 62.4 128.4 63 126.5 63.4 c -1.8 0.4 -3.9 0.5 -6.3 0.5 z m -1.3 -30.3 c -2.3 0 -4.2 0.7 -5.6 2.2 c -1.4 1.5 -2.3 3.6 -2.5 6.5 h 15.7 c 0 -2.9 -0.7 -5 -2.1 -6.5 c -1.3 -1.5 -3.2 -2.2 -5.5 -2.2 z M 146.1 63.3 l -13.2 -34.6 h 7.8 l 7 20.1 c 1.2 3.4 1.9 6.1 2.2 8.2 h 0.3 c 0.2 -1.5 0.9 -4.2 2.2 -8.2 l 7.1 -20.1 h 7.8 L 154.1 63.3 h -8 z M 183.8 63.9 c -5.4 0 -9.6 -1.6 -12.6 -4.7 c -3 -3.1 -4.6 -7.5 -4.6 -13 c 0 -5.7 1.4 -10.1 4.2 -13.3 c 2.8 -3.2 6.7 -4.9 11.6 -4.9 c 4.6 0 8.2 1.4 10.8 4.2 c 2.7 2.8 4 6.6 4 11.5 v 4 h -23.1 c 0.1 3.4 1 5.9 2.7 7.8 c 1.7 1.8 4.1 2.7 7.2 2.7 c 2 0 4 -0.2 5.7 -0.6 c 1.8 -0.4 3.7 -1 5.7 -1.9 v 6 C 193.8 62.4 192 63 190.1 63.4 c -1.8 0.4 -3.9 0.5 -6.3 0.5 z m -1.3 -30.3 c -2.3 0 -4.2 0.7 -5.6 2.2 c -1.4 1.5 -2.3 3.6 -2.5 6.5 h 15.7 c 0 -2.9 -0.7 -5 -2.1 -6.5 c -1.3 -1.5 -3.2 -2.2 -5.5 -2.2 z M 209.2 63.3 h -7.4 V 14.5 h 7.4 v 48.7 z M 246.6 45.9 c 0 5.7 -1.5 10.1 -4.4 13.3 c -2.9 3.2 -6.9 4.8 -12.1 4.8 c -3.2 0 -6.1 -0.7 -8.6 -2.2 c -2.5 -1.5 -4.4 -3.6 -5.7 -6.3 c -1.3 -2.7 -2 -5.9 -2 -9.5 c 0 -5.6 1.4 -10 4.3 -13.2 c 2.9 -3.2 6.9 -4.7 12.2 -4.7 c 5 0 9 1.6 11.9 4.8 c 2.9 3.2 4.4 7.6 4.4 13 z m -25.2 0 c 0 8 3 12 8.9 12 c 5.8 0 8.8 -4 8.8 -12 c 0 -7.9 -2.9 -11.9 -8.8 -11.9 c -3.1 0 -5.3 1 -6.7 3.1 c -1.4 2 -2.1 5 -2.1 8.8 z M 268.8 63.9 c -4.4 0 -7.8 -1.6 -10.2 -4.7 h -0.4 c 0.3 2.9 0.4 4.7 0.4 5.3 v 14.2 h -7.4 V 28.6 h 6 c 0.2 0.6 0.5 2.2 1 4.6 h 0.4 c 2.3 -3.5 5.7 -5.3 10.3 -5.3 c 4.3 0 7.7 1.6 10.1 4.7 c 2.4 3.1 3.6 7.5 3.6 13.2 c 0 5.7 -1.2 10.1 -3.7 13.3 c -2.5 3.2 -5.8 4.8 -10.2 4.8 z m -1.8 -29.9 c -2.9 0 -5.1 0.9 -6.4 2.6 c -1.3 1.7 -2 4.4 -2 8.2 v 1.1 c 0 4.2 0.7 7.3 2 9.2 c 1.3 1.9 3.5 2.8 6.5 2.8 c 2.5 0 4.5 -1 5.9 -3.1 c 1.4 -2.1 2.1 -5.1 2.1 -8.9 c 0 -3.9 -0.7 -6.8 -2.1 -8.8 c -1.4 -2 -3.4 -3 -6 -3 z M 302.4 63.9 c -5.4 0 -9.6 -1.6 -12.6 -4.7 c -3 -3.1 -4.6 -7.5 -4.6 -13 c 0 -5.7 1.4 -10.1 4.2 -13.3 c 2.8 -3.2 6.7 -4.9 11.6 -4.9 c 4.6 0 8.2 1.4 10.8 4.2 c 2.6 2.8 4 6.6 4 11.5 v 4 H 292.8 c 0.1 3.4 1 5.9 2.7 7.8 c 1.7 1.8 4.1 2.7 7.2 2.7 c 2 0 4 -0.2 5.7 -0.6 s 3.7 -1 5.7 -1.9 v 6 C 312.5 62.4 310.6 63 308.7 63.4 c -1.8 0.4 -3.9 0.5 -6.3 0.5 z m -1.3 -30.3 c -2.3 0 -4.2 0.7 -5.6 2.2 s -2.3 3.6 -2.5 6.5 h 15.7 c 0 -2.9 -0.7 -5 -2.1 -6.5 c -1.3 -1.5 -3.2 -2.2 -5.5 -2.2 z M 338 28 c 1.5 0 2.7 0.1 3.7 0.3 l -0.7 6.9 C 339.9 34.9 338.8 34.8 337.7 34.8 c -2.9 0 -5.3 1 -7.2 2.9 c -1.8 1.9 -2.7 4.4 -2.7 7.5 v 18.1 h -7.4 V 28.6 h 5.8 l 1 6.1 h 0.4 c 1.1 -2.1 2.6 -3.7 4.5 -4.9 c 1.8 -1.2 3.8 -1.8 6 -1.8 z M 367.5 53.4 c 0 3.4 -1.2 6 -3.7 7.8 c -2.5 1.8 -6 2.7 -10.6 2.7 c -4.6 0 -8.3 -0.7 -11.1 -2.1 V 55.4 c 4.1 1.9 7.9 2.8 11.4 2.8 c 4.5 0 6.8 -1.4 6.8 -4.1 c 0 -0.9 -0.3 -1.6 -0.8 -2.2 c -0.5 -0.6 -1.3 -1.2 -2.5 -1.8 c -1.1 -0.6 -2.7 -1.3 -4.8 -2.1 c -4 -1.5 -6.7 -3.1 -8.1 -4.6 c -1.4 -1.5 -2.1 -3.5 -2.1 -6 c 0 -3 1.2 -5.3 3.6 -6.9 c 2.4 -1.6 5.6 -2.5 9.8 -2.5 c 4.1 0 7.9 0.8 11.6 2.5 l -2.4 5.5 c -3.7 -1.5 -6.9 -2.3 -9.4 -2.3 c -3.9 0 -5.8 1.1 -5.8 3.3 c 0 1.1 0.5 2 1.5 2.8 c 1 0.8 3.2 1.8 6.6 3.1 c 2.9 1.1 4.9 2.1 6.2 3 s 2.3 2 2.9 3.2 c 0.6 1.2 0.9 2.6 0.9 4.3 z"/></g>
</svg>
