<?xml version="1.0" encoding="utf-8"?>
<!-- Generator: Adobe Illustrator 22.1.0, SVG Export Plug-In . SVG Version: 6.00 Build 0)  -->
<svg version="1.1" id="Laag_1" xmlns="http://www.w3.org/2000/svg" xmlns:xlink="http://www.w3.org/1999/xlink" x="0px" y="0px"
	 viewBox="0 0 2365 1538" style="enable-background: new 0 0 1565 1538" xml:space="preserve">
<style type="text/css">
	.st0{fill:#DEDFE0;}
	.st1{fill:#5F6062;}
	.st2{fill:#6EB33F;}
</style>
<path class="st0" d="M 1175.9 919.7 H 66.4 c -11.6 0 -27.8 4.6 -25.5 -11.6 c 0 -16.2 16.2 -13.9 27.8 -13.9 h 2214.3 c 9.3 0 16.2 0 25.5 4.6 c 4.6 2.3 6.9 6.9 6.9 11.6 c 0 4.6 -4.6 9.3 -11.6 9.3 L 1175.9 919.7 z"/>
<path class="st1" d="M 1221.7 459.3 c -11.6 11.6 -25.5 23.2 -37.1 34.7 c -9.3 9.3 -13.9 20.8 -13.9 34.7 v 78.8 c 0 16.2 -6.9 23.2 -20.8 23.2 h -71.8 c -16.2 0 -23.2 -6.9 -23.2 -23.2 V 114.2 c 0 -18.5 4.6 -23.2 23.2 -23.2 h 64.9 c 23.2 0 27.8 4.6 27.8 27.8 v 217.7 c 0 6.9 -4.6 18.5 4.6 20.8 c 6.9 2.3 11.6 -6.9 16.2 -13.9 c 30.1 -30.1 60.2 -62.5 88 -95 c 11.6 -13.9 25.5 -18.5 44 -18.5 h 92.7 c 4.6 0 11.6 -2.3 13.9 4.6 c 2.3 6.9 -2.3 9.3 -6.9 13.9 c -32.4 34.7 -64.9 67.2 -97.3 101.9 c -20.8 20.8 -20.8 25.5 -6.9 51 c 41.7 67.2 81.1 136.7 122.8 203.8 c 4.6 6.9 11.6 11.6 6.9 20.8 s -13.9 4.6 -20.8 4.6 h -81.1 c -18.5 0 -30.1 -6.9 -39.4 -23.2 l -83.4 -139 C 1226.3 466.3 1224 461.6 1221.7 459.3 L 1221.7 459.3 z M 774.6 362 v 238.6 c 0 25.5 -4.6 30.1 -30.1 30.1 h -64.9 c -20.8 0 -25.5 -4.6 -25.5 -25.5 V 116.5 c 0 -20.8 4.6 -25.5 25.5 -25.5 h 67.2 c 20.8 0 25.5 4.6 25.5 27.8 C 774.6 197.6 774.6 278.6 774.6 362 z M 976.1 429.2 v 171.4 c 0 25.5 -4.6 30.1 -27.8 30.1 h -64.9 c -18.5 0 -25.5 -6.9 -25.5 -25.5 V 255.5 c 0 -20.8 4.6 -25.5 25.5 -25.5 h 67.2 c 18.5 0 25.5 6.9 25.5 25.5 V 429.2 z M 918.2 88.7 H 953 c 13.9 0 18.5 6.9 18.5 18.5 v 51 c 0 13.9 -6.9 18.5 -18.5 18.5 h -76.4 c -13.9 0 -18.5 -6.9 -18.5 -20.8 v -51 c 0 -11.6 6.9 -18.5 20.8 -18.5 C 892.8 88.7 906.6 88.7 918.2 88.7 L 918.2 88.7 z"/>
<path class="st2" d="M 2302.5 618.4 c -27.8 -23.2 -53.3 -46.3 -81.1 -69.5 c -9.3 -6.9 -11.6 -11.6 -4.6 -23.2 c 34.7 -62.5 51 -127.4 46.3 -199.2 C 2251.5 143.6 2096.3 0 1908.7 0 c -9.3 0 -23.2 0 -37.1 2.3 c -203.8 20.8 -347.4 222.4 -303.4 423.9 c 53.3 243.2 324.3 354.4 535.1 220 c 9.3 -4.6 13.9 -4.6 20.8 2.3 l 90.3 76.4 c 16.2 11.6 23.2 11.6 37.1 -2.3 c 18.5 -20.8 37.1 -44 55.6 -64.9 C 2321 641.6 2318.7 632.3 2302.5 618.4 L 2302.5 618.4 z M 1911 569.8 c -120.4 0 -215.4 -97.3 -215.4 -217.7 c 0 -115.8 97.3 -213.1 215.4 -213.1 s 215.4 97.3 215.4 215.4 C 2128.7 470.2 2029.1 569.8 1911 569.8 L 1911 569.8 z"/>
<path class="st1" d="M 553 552.5 c -16.2 -13.9 -30.1 -27.8 -46.3 -39.4 c -9.3 -6.9 -11.6 -13.9 -4.6 -25.5 c 25.5 -41.7 37.1 -88 37.1 -136.7 c 0 -13.9 0 -27.8 -4.6 -44 C 511.3 158.8 365.4 56.9 217.1 84.7 C 66.6 112.4 -30.7 260.7 4 408.9 c 41.7 178.4 238.6 266.4 400.7 173.7 c 9.3 -4.6 13.9 -4.6 20.8 2.3 c 18.5 16.2 37.1 32.4 57.9 51 c 11.6 9.3 20.8 9.3 30.1 -2.3 c 13.9 -16.2 27.8 -32.4 44 -48.6 C 564.6 571.1 564.6 561.8 553 552.5 L 553 552.5 z M 268.1 503.9 c -85.7 0 -155.2 -69.5 -155.2 -150.6 c 0 -88 67.2 -157.5 155.2 -159.8 c 85.7 0 155.2 71.8 155.2 155.2 C 423.3 434.4 353.8 503.9 268.1 503.9 z M 1908 207.4 c 76.4 0 139 62.5 139 139 s -62.5 139 -139 139 c -76.4 0 -139 -62.5 -139 -139 C 1769 267.6 1831.6 207.4 1908 207.4 z M"/>
</svg>
