<svg xmlns="http://www.w3.org/2000/svg" width="2500" height="2500" viewBox="0 0 192.756 192.756"><path fill-rule="evenodd" clip-rule="evenodd" fill="#ffffff" d="M 0 0 h 192.8 v 192.8 H 0 V 0 z"/><path d="M 17.3 120.1 c 0.9 -3.2 3.5 -7.7 5.8 -10 l 90.6 -90.8 c 2.3 -2.3 6.9 -4.2 10.2 -4.3 l 52.9 -0.2 c 3.3 0 5.3 2.6 4.4 5.8 l -24.4 88.9 c -0.9 3.2 1.1 5.8 4.4 5.7 l 7.9 0 c 3.3 0 5.3 2.6 4.4 5.7 l -5.5 19.9 c -0.9 3.2 -4.3 5.8 -7.6 5.8 l -7.9 0 c -3.3 0 -6.7 2.6 -7.6 5.8 l -5.3 19.5 c -0.9 3.2 -4.3 5.8 -7.6 5.8 l -43.9 0.1 c -3.3 0 -5.3 -2.6 -4.4 -5.8 l 5.3 -19.5 c 0.9 -3.2 -1.1 -5.8 -4.4 -5.8 l -68.9 0.2 c -3.3 0 -5.3 -2.6 -4.4 -5.8 l 5.9 -21.3 z m 97.4 -57.3 c -0.9 -0.3 -1.9 0.5 -2.9 1.6 L 67.6 111.2 c -2.3 2.4 -1.4 4.3 1.9 4.3 l 25.9 -0.1 c 3.3 0 6.7 -2.6 7.6 -5.8 l 12 -43.9 c 0.4 -1.4 0.5 -2.7 -0.3 -3 z" fill-rule="evenodd" clip-rule="evenodd" fill="#fff"/><path d="M 14.7 119.3 l 0 0 c 0.1 -0.5 0.3 -1.1 0.6 -1.6 c 0.2 -0.6 0.5 -1.1 0.7 -1.7 c 1.3 -2.9 3.4 -6 5.3 -7.9 l 90.6 -90.8 c 0.2 -0.2 0.3 -0.3 0.4 -0.4 l 0 0 c 0.4 -0.4 0.9 -0.8 1.4 -1.1 a 18.2 18.2 0 0 1 1.6 -1 c 2.7 -1.5 6.1 -2.6 8.8 -2.6 l 52.9 -0.2 a 8.3 8.3 0 0 1 2.2 0.3 c 1.6 0.4 2.8 1.3 3.8 2.5 c 0.9 1.2 1.4 2.7 1.4 4.3 a 8.3 8.3 0 0 1 -0.3 2.2 l -24.4 88.9 a 2.9 2.9 0 0 0 -0.1 0.8 c 0 0.4 0.1 0.7 0.3 0.9 c 0.2 0.2 0.4 0.4 0.8 0.5 c 0.2 0.1 0.5 0.1 0.8 0.1 l 7.9 0 a 8.3 8.3 0 0 1 2.2 0.3 c 1.6 0.4 2.8 1.3 3.7 2.5 c 0.9 1.2 1.4 2.6 1.4 4.3 a 8.3 8.3 0 0 1 -0.3 2.2 l -5.5 19.9 a 8.5 8.5 0 0 1 -0.2 0.6 a 9.8 9.8 0 0 1 -0.8 1.8 a 10.8 10.8 0 0 1 -1.1 1.5 l 0 0 c -2 2.4 -5.1 4 -8.2 4 l -7.9 0 l -0.2 0 v 0 c -0.3 0 -0.6 0.1 -0.8 0.1 c -0.3 0.1 -0.6 0.2 -0.9 0.3 c -1.4 0.7 -2.6 1.9 -3 3.3 l -5.3 19.5 a 9.8 9.8 0 0 1 -1 2.3 a 10.9 10.9 0 0 1 -1.1 1.5 c -2 2.4 -5.1 4 -8.2 4 l -43.9 0.1 a 8.3 8.3 0 0 1 -2.2 -0.3 c -1.6 -0.4 -2.8 -1.3 -3.7 -2.5 c -0.9 -1.2 -1.4 -2.7 -1.4 -4.3 a 8.3 8.3 0 0 1 0.3 -2.2 l 5.3 -19.5 c 0.1 -0.3 0.1 -0.5 0.1 -0.8 c 0 -0.4 -0.1 -0.7 -0.3 -0.9 c -0.2 -0.2 -0.4 -0.4 -0.8 -0.5 a 2.8 2.8 0 0 0 -0.8 -0.1 l -68.9 0.2 a 8.3 8.3 0 0 1 -2.2 -0.3 c -1.6 -0.4 -2.8 -1.3 -3.8 -2.5 c -0.9 -1.2 -1.4 -2.7 -1.4 -4.3 a 8.2 8.2 0 0 1 0.3 -2.2 l 5.9 -21.3 z m 5.4 1.4 l 0 0 l -5.9 21.3 a 2.8 2.8 0 0 0 -0.1 0.8 c 0 0.4 0.1 0.7 0.3 0.9 c 0.2 0.2 0.4 0.4 0.8 0.5 c 0.2 0.1 0.5 0.1 0.8 0.1 l 68.9 -0.2 a 8.3 8.3 0 0 1 2.2 0.3 c 1.6 0.4 2.8 1.3 3.8 2.5 c 0.9 1.2 1.4 2.7 1.4 4.3 a 8.3 8.3 0 0 1 -0.3 2.2 L 86.5 172.9 a 2.9 2.9 0 0 0 -0.1 0.8 c 0 0.4 0.1 0.7 0.3 0.9 c 0.2 0.2 0.4 0.4 0.8 0.5 c 0.2 0.1 0.5 0.1 0.8 0.1 l 43.9 -0.1 c 1.4 0 2.9 -0.8 3.9 -2 c 0.2 -0.2 0.4 -0.5 0.5 -0.8 c 0.1 -0.2 0.3 -0.5 0.4 -0.8 c 0 -0.1 0 -0.1 0.1 -0.2 l 5.3 -19.5 c 0.8 -3 3.2 -5.6 6 -6.9 c 0.6 -0.3 1.2 -0.5 1.8 -0.6 a 9.7 9.7 0 0 1 1.9 -0.3 h 0 c 0.1 0 0.3 0 0.5 0 l 7.9 0 c 1.4 0 2.9 -0.8 3.9 -2 v 0 c 0.2 -0.3 0.4 -0.5 0.5 -0.7 a 4.3 4.3 0 0 0 0.3 -0.8 c 0 -0.1 0 -0.1 0.1 -0.2 l 5.5 -19.9 a 2.9 2.9 0 0 0 0.1 -0.8 c 0 -0.4 -0.1 -0.7 -0.3 -0.9 c -0.2 -0.2 -0.4 -0.4 -0.8 -0.5 a 2.9 2.9 0 0 0 -0.8 -0.1 l -7.9 0 a 8.2 8.2 0 0 1 -2.2 -0.3 c -1.6 -0.4 -2.8 -1.3 -3.7 -2.5 c -0.9 -1.2 -1.4 -2.7 -1.4 -4.3 a 8.1 8.1 0 0 1 0.3 -2.2 l 24.4 -88.9 c 0.1 -0.3 0.1 -0.5 0.1 -0.8 c 0 -0.4 -0.1 -0.7 -0.3 -0.9 c -0.2 -0.2 -0.4 -0.4 -0.8 -0.5 a 2.9 2.9 0 0 0 -0.8 -0.1 l -52.9 0.2 c -1.8 0 -4.1 0.8 -6.1 1.8 c -0.4 0.2 -0.8 0.5 -1.1 0.7 c -0.3 0.2 -0.6 0.4 -0.9 0.7 h 0 a 6.5 6.5 0 0 0 -0.2 0.2 L 25.1 112 c -1.5 1.5 -3.1 3.9 -4.2 6.3 c -0.2 0.5 -0.4 0.9 -0.6 1.3 c -0.1 0.4 -0.3 0.8 -0.4 1.2 z m 91.8 -60.1 c 1.2 -0.7 2.4 -1 3.8 -0.5 c 2.2 0.8 2.7 2.7 2.4 4.9 c -0.1 0.3 -0.1 0.6 -0.1 0.8 c 0 0.2 -0.1 0.4 -0.2 0.7 l 0 0 l -12 43.9 c -0.8 3 -3.2 5.5 -6 6.9 c -0.6 0.3 -1.2 0.5 -1.8 0.6 a 9.8 9.8 0 0 1 -1.9 0.3 a 9.1 9.1 0 0 1 -0.5 0 l -25.9 0.1 c -1.3 0 -2.5 -0.2 -3.4 -0.7 c -1 -0.5 -1.8 -1.3 -2.2 -2.3 c -0.4 -1 -0.5 -2 -0.1 -3.1 c 0.3 -1 0.9 -2 1.8 -2.9 l 0 0 l 44.2 -46.8 l 0 0 c 0.7 -0.7 1.3 -1.4 2 -1.8 z m -0.6 8.4 l -41.3 43.7 l 25.4 -0.1 l 0.2 0 c 0.3 0 0.6 -0.1 0.8 -0.1 c 0.3 -0.1 0.6 -0.2 0.9 -0.3 c 1.4 -0.7 2.6 -1.9 3 -3.3 l 11 -39.9 z" fill="#f68d2e"/></svg>