<svg id="Layer_1" xmlns="http://www.w3.org/2000/svg" viewBox="0 0 80 80" width="2500" height="2500"><style>.st0{fill:none}.st1{fill:#729e54}.st2{fill:#729e54}.st3{fill:#729e54}.st4{fill:#729e54}.st5{fill:#729e54}.st6{fill:#729e54}</style><path class="st0" d="M 0 0 h 80 v 80 H 0 z"/><path class="st1" d="M 54.1 40 L 40 54.1 l 11.4 11.4 c 3.3 3.3 8.8 3.3 12.2 0 l 1.9 -1.9 c 3.3 -3.3 3.3 -8.8 0 -12.2 L 54.1 40 z"/><path class="st2" d="M 28.6 14.5 c -3.3 -3.3 -8.8 -3.3 -12.2 0 l -1.9 1.9 c -3.3 3.3 -3.3 8.8 0 12.2 L 40 54.1 L 54.1 40 L 28.6 14.5 z"/><path class="st3" d="M 14.5 51.4 c -3.3 3.3 -3.3 8.8 0 12.2 l 1.9 1.9 c 3.3 3.3 8.8 3.3 12.2 0 L 40 54.1 L 25.9 40 L 14.5 51.4 z"/><path class="st4" d="M 65.5 28.6 c 3.3 -3.3 3.3 -8.8 0 -12.2 l -1.9 -1.9 c -3.3 -3.3 -8.8 -3.3 -12.2 0 L 40 25.9 L 54.1 40 l 11.4 -11.4 z"/><path class="st5" d="M 40 32.1 c -7 0 -14.1 7.9 -14.1 7.9 L 40 54.1 L 54.1 40 S 47 32.1 40 32.1 z"/><path transform="rotate(-45.1,48.8,48.8)" class="st6" d="M 38.8 46.4 h 19.9 v 4.9 H 38.8 z"/></svg>