<svg xmlns="http://www.w3.org/2000/svg" width="2500" height="2500" viewBox="0 0 192.756 192.756"><g fill-rule="evenodd" clip-rule="evenodd"><path fill="#ffffff" d="M 0 0.4 h 192.8 v 192.8 H 0 V 0.4 z"/><path d="M 182.3 96.8 c 0 47.5 -38.5 86 -86 86 c -47.5 0 -86 -38.5 -86 -86 c 0 -47.5 38.5 -86 86 -86 c 47.5 0 86 38.5 86 86 z" fill="#0078c9"/><path d="M 100.9 117.5 c -4.6 5.1 -9.3 6.4 -11 6.4 c -1.7 0 -4.9 -0.7 -4.9 -4.9 c 0 -2 0.9 -5.8 1.3 -7.4 l 1.8 -7.9 c 0.2 -0.8 0.5 -2.2 0.5 -2.6 c 0 -0.8 -0.5 -1 -0.8 -1 c -0.5 0 -0.8 0.3 -3.6 3.3 l -1.5 -1.4 c 6.4 -7 9 -8.1 11.3 -8.1 c 2.7 0 4 2 4 4.5 c 0 1.9 -0.3 3.4 -0.8 5.6 l -2.7 11.8 c -0.1 0.8 -0.5 2 -0.5 2.6 c 0 0.5 0.3 1 0.9 1 c 0.6 0 2.4 -0.8 4.7 -3.3 l 1.4 1.4 z m -3.4 -38.8 c 2.6 0 4.5 2.3 4.5 5.3 c 0 2.9 -2 6.5 -5.6 6.5 c -2.8 0 -4.6 -2.2 -4.6 -5.2 c 0 -3.7 2.4 -6.7 5.6 -6.7 z" fill="#fff"/></g></svg>